{
  "accessors": [
    {
      "bufferView": 0,
      "componentType": 5126,
      "count": 1981,
      "max": [
        43.549930572509766,
        214.697509765625,
        27.80045509338379
      ],
      "min": [
        -43.54999923706055,
        -212.072998046875,
        -18.733600616455078
      ],
      "type": "VEC3"
    },
    {
      "bufferView": 1,
      "componentType": 5125,
      "count": 3814,
      "type": "SCALAR"
    },
    {
      "bufferView": 2,
      "componentType": 5126,
      "count": 1981,
      "type": "VEC3"
    },
    {
      "bufferView": 3,
      "componentType": 5126,
      "count": 1981,
      "type": "VEC4"
    },
    {
      "bufferView": 4,
      "componentType": 5126,
      "count": 1981,
      "type": "VEC2"
    },
    {
      "bufferView": 5,
      "componentType": 5126,
      "count": 1981,
      "max": [
        43.549930572509766,
        214.697509765625,
        27.80045509338379
      ],
      "min": [
        -43.54999923706055,
        -212.072998046875,
        -18.733600616455078
      ],
      "type": "VEC3"
    },
    {
      "bufferView": 6,
      "componentType": 5125,
      "count": 198,
      "type": "SCALAR"
    },
    {
      "bufferView": 7,
      "componentType": 5126,
      "count": 1981,
      "type": "VEC3"
    },
    {
      "bufferView": 8,
      "componentType": 5126,
      "count": 1981,
      "type": "VEC4"
    },
    {
      "bufferView": 9,
      "componentType": 5126,
      "count": 1981,
      "type": "VEC2"
    },
    {
      "bufferView": 10,
      "componentType": 5126,
      "count": 2654,
      "max": [
        35.0533332824707,
        148.02444458007813,
        55.8875617980957
      ],
      "min": [
        -35.05329895019531,
        -97.06420135498047,
        6.809150218963623
      ],
      "type": "VEC3"
    },
    {
      "bufferView": 11,
      "componentType": 5125,
      "count": 4768,
      "type": "SCALAR"
    },
    {
      "bufferView": 12,
      "componentType": 5126,
      "count": 2654,
      "type": "VEC3"
    },
    {
      "bufferView": 13,
      "componentType": 5126,
      "count": 2654,
      "type": "VEC4"
    },
    {
      "bufferView": 14,
      "componentType": 5126,
      "count": 2654,
      "type": "VEC2"
    },
    {
      "bufferView": 15,
      "componentType": 5126,
      "count": 2654,
      "max": [
        35.0533332824707,
        148.02444458007813,
        55.8875617980957
      ],
      "min": [
        -35.05329895019531,
        -97.06420135498047,
        6.809150218963623
      ],
      "type": "VEC3"
    },
    {
      "bufferView": 16,
      "componentType": 5125,
      "count": 54,
      "type": "SCALAR"
    },
    {
      "bufferView": 17,
      "componentType": 5126,
      "count": 2654,
      "type": "VEC3"
    },
    {
      "bufferView": 18,
      "componentType": 5126,
      "count": 2654,
      "type": "VEC4"
    },
    {
      "bufferView": 19,
      "componentType": 5126,
      "count": 2654,
      "type": "VEC2"
    }
  ],
  "asset": {
    "version": "2.0"
  },
  "bufferViews": [
    {
      "buffer": 0,
      "byteLength": 23772,
      "target": 34962
    },
    {
      "buffer": 1,
      "byteLength": 15256,
      "target": 34963
    },
    {
      "buffer": 2,
      "byteLength": 23772,
      "target": 34962
    },
    {
      "buffer": 3,
      "byteLength": 31696,
      "target": 34962
    },
    {
      "buffer": 4,
      "byteLength": 15848,
      "target": 34962
    },
    {
      "buffer": 0,
      "byteLength": 23772,
      "target": 34962
    },
    {
      "buffer": 5,
      "byteLength": 792,
      "target": 34963
    },
    {
      "buffer": 2,
      "byteLength": 23772,
      "target": 34962
    },
    {
      "buffer": 3,
      "byteLength": 31696,
      "target": 34962
    },
    {
      "buffer": 4,
      "byteLength": 15848,
      "target": 34962
    },
    {
      "buffer": 6,
      "byteLength": 31848,
      "target": 34962
    },
    {
      "buffer": 7,
      "byteLength": 19072,
      "target": 34963
    },
    {
      "buffer": 8,
      "byteLength": 31848,
      "target": 34962
    },
    {
      "buffer": 9,
      "byteLength": 42464,
      "target": 34962
    },
    {
      "buffer": 10,
      "byteLength": 21232,
      "target": 34962
    },
    {
      "buffer": 6,
      "byteLength": 31848,
      "target": 34962
    },
    {
      "buffer": 11,
      "byteLength": 216,
      "target": 34963
    },
    {
      "buffer": 8,
      "byteLength": 31848,
      "target": 34962
    },
    {
      "buffer": 9,
      "byteLength": 42464,
      "target": 34962
    },
    {
      "buffer": 10,
      "byteLength": 21232,
      "target": 34962
    }
  ],
  "buffers": [
    {
      "byteLength": 23772,
      "uri": "data:application/octet-stream;base64,"
    },
    {
      "byteLength": 15256,
      "uri": "data:application/octet-stream;base64,"
    },
    {
      "byteLength": 23772,
      "uri": "data:application/octet-stream;base64,"
    },
    {
      "byteLength": 31696,
      "uri": "data:application/octet-stream;base64,"
    },
    {
      "byteLength": 15848,
      "uri": "data:application/octet-stream;base64,"
    },
    {
      "byteLength": 792,
      "uri": "data:application/octet-stream;base64,"
    },
    {
      "byteLength": 31848,
      "uri": "data:application/octet-stream;base64,"
    },
    {
      "byteLength": 19072,
      "uri": "data:application/octet-stream;base64,"
    },
    {
      "byteLength": 31848,
      "uri": "data:application/octet-stream;base64,"
    },
    {
      "byteLength": 42464,
      "uri": "data:application/octet-stream;base64,"
    },
    {
      "byteLength": 21232,
      "uri": "data:application/octet-stream;base64,"
    },
    {
      "byteLength": 216,
      "uri": "data:application/octet-stream;base64,"
    }
  ],
  "images": [
    {
      "uri": "textures/LifeguardKayak_Body_AO.png"
    },
    {
      "uri": "textures/LifeguardKayak_Body_Roughness.png"
    },
    {
      "uri": "textures/LifeguardKayak_Body_Diffuse.png"
    },
    {
      "uri": "textures/LifeguardKayak_Body_Metalic.png"
    },
    {
      "uri": "textures/LifeguardKayak_Body_Normal.png"
    },
    {
      "uri": "textures/LifeguardKayak_Seat_AO.png"
    },
    {
      "uri": "textures/LifeguardKayak_Seat_Roughness.png"
    },
    {
      "uri": "textures/LifeguardKayak_Seat_Diffuse.png"
    },
    {
      "uri": "textures/LifeguardKayak_Seat_Normal.png"
    },
    {
      "uri": "textures/LifeguardKayak_Seat_Metalic.png"
    }
  ],
  "materials": [
    {
      "doubleSided": true,
      "name": "LifeguardKayak_Body",
      "normalTexture": {
        "index": 4
      },
      "occlusionTexture": {
        "index": 0
      },
      "pbrMetallicRoughness": {
        "baseColorFactor": [
          0.800000011920929,
          0.800000011920929,
          0.800000011920929,
          1.0
        ],
        "baseColorTexture": {
          "index": 2
        },
        "metallicRoughnessTexture": {
          "index": 3
        }
      }
    },
    {
      "doubleSided": true,
      "name": "LifeguardKayak_Seat",
      "normalTexture": {
        "index": 8
      },
      "occlusionTexture": {
        "index": 5
      },
      "pbrMetallicRoughness": {
        "baseColorFactor": [
          0.800000011920929,
          0.800000011920929,
          0.800000011920929,
          1.0
        ],
        "baseColorTexture": {
          "index": 7
        },
        "metallicRoughnessTexture": {
          "index": 9
        }
      }
    }
  ],
  "meshes": [
    {
      "name": "LifeguardKayak_Body_LifeguardKayak_Body_0",
      "primitives": [
        {
          "attributes": {
            "NORMAL": 2,
            "POSITION": 0,
            "TANGENT": 3,
            "TEXCOORD_0": 4
          },
          "indices": 1,
          "material": 0,
          "mode": 5
        },
        {
          "attributes": {
            "NORMAL": 7,
            "POSITION": 5,
            "TANGENT": 8,
            "TEXCOORD_0": 9
          },
          "indices": 6,
          "material": 0,
          "mode": 4
        }
      ]
    },
    {
      "name": "LifeguardKayak_Seats_LifeguardKayak_Seat_0",
      "primitives": [
        {
          "attributes": {
            "NORMAL": 12,
            "POSITION": 10,
            "TANGENT": 13,
            "TEXCOORD_0": 14
          },
          "indices": 11,
          "material": 1,
          "mode": 5
        },
        {
          "attributes": {
            "NORMAL": 17,
            "POSITION": 15,
            "TANGENT": 18,
            "TEXCOORD_0": 19
          },
          "indices": 16,
          "material": 1,
          "mode": 4
        }
      ]
    }
  ],
  "nodes": [
    {
      "mesh": 0,
      "name": "LifeguardKayak_Body_LifeguardKayak_Body_0"
    },
    {
      "children": [
        0
      ],
      "name": "_gltfNode_1",
      "rotation": [
        -0.7071067811865475,
        0.0,
        0.0,
        0.7071067811865476
      ],
      "scale": [
        1.0,
        1.0,
        1.0
      ],
      "translation": [
        0.0,
        0.0,
        0.0
      ]
    },
    {
      "children": [
        1
      ],
      "name": "LifeguardKayak_Body",
      "rotation": [
        2.185569999999998e-08,
        0.0,
        0.0,
        0.9999999999999998
      ],
      "scale": [
        1.0,
        1.0,
        1.0
      ],
      "translation": [
        0.0,
        0.0,
        0.0
      ]
    },
    {
      "mesh": 1,
      "name": "LifeguardKayak_Seats_LifeguardKayak_Seat_0"
    },
    {
      "children": [
        3
      ],
      "name": "_gltfNode_4",
      "rotation": [
        -0.7071067811865475,
        0.0,
        0.0,
        0.7071067811865476
      ],
      "scale": [
        1.0,
        1.0,
        1.0
      ],
      "translation": [
        9.256280009140028e-07,
        0.0,
        -6.130159854888916
      ]
    },
    {
      "children": [
        4
      ],
      "name": "LifeguardKayak_Seats",
      "rotation": [
        2.185569999999998e-08,
        0.0,
        0.0,
        0.9999999999999998
      ],
      "scale": [
        1.0,
        1.0,
        1.0
      ],
      "translation": [
        0.0,
        0.0,
        0.0
      ]
    },
    {
      "children": [
        2,
        5
      ],
      "name": "RootNode"
    },
    {
      "children": [
        6
      ],
      "name": "Lifeguard Rescue Kayak",
      "rotation": [
        1.1102230246251565e-16,
        0.0,
        0.0,
        1.0
      ],
      "scale": [
        1.0,
        1.0,
        1.0
      ],
      "translation": [
        0.0,
        0.0,
        0.0
      ]
    }
  ],
  "samplers": [
    {
      "magFilter": 9729,
      "minFilter": 9729,
      "wrapS": 10497,
      "wrapT": 10497
    },
    {
      "magFilter": 9729,
      "minFilter": 9729,
      "wrapS": 10497,
      "wrapT": 10497
    },
    {
      "magFilter": 9729,
      "minFilter": 9729,
      "wrapS": 10497,
      "wrapT": 10497
    },
    {
      "magFilter": 9729,
      "minFilter": 9729,
      "wrapS": 10497,
      "wrapT": 10497
    },
    {
      "magFilter": 9729,
      "minFilter": 9729,
      "wrapS": 10497,
      "wrapT": 10497
    },
    {
      "magFilter": 9729,
      "minFilter": 9729,
      "wrapS": 10497,
      "wrapT": 10497
    },
    {
      "magFilter": 9729,
      "minFilter": 9729,
      "wrapS": 10497,
      "wrapT": 10497
    },
    {
      "magFilter": 9729,
      "minFilter": 9729,
      "wrapS": 10497,
      "wrapT": 10497
    },
    {
      "magFilter": 9729,
      "minFilter": 9729,
      "wrapS": 10497,
      "wrapT": 10497
    },
    {
      "magFilter": 9729,
      "minFilter": 9729,
      "wrapS": 10497,
      "wrapT": 10497
    }
  ],
  "scene": 0,
  "scenes": [
    {
      "nodes": [
        7
      ]
    }
  ],
  "textures": [
    {
      "sampler": 0,
      "source": 0
    },
    {
      "sampler": 1,
      "source": 1
    },
    {
      "sampler": 2,
      "source": 2
    },
    {
      "sampler": 3,
      "source": 3
    },
    {
      "sampler": 4,
      "source": 4
    },
    {
      "sampler": 5,
      "source": 5
    },
    {
      "sampler": 6,
      "source": 6
    },
    {
      "sampler": 7,
      "source": 7
    },
    {
      "sampler": 8,
      "source": 8
    },
    {
      "sampler": 9,
      "source": 9
    }
  ]
}
